<svg width="24" height="24" viewBox="0 0 24 24" fill="none" xmlns="http://www.w3.org/2000/svg">
<path d="M16.2841 2.35745V4.4347C14.8835 4.75766 13.0111 5.70679 11.5423 7.32239L9.69166 7.02861C10.6904 5.38359 14.8785 2.74531 16.2841 2.35745Z" fill="#00CE90"/>
<path d="M16.5966 7.3908L16.3971 8.87122C14.6163 8.86563 12.3933 8.59348 9.40303 8.14808L9.80434 6.78094C12.5495 7.18399 14.8033 7.43061 16.5966 7.3908Z" fill="#00CE90"/>
<path d="M12.0462 1.51326L10.539 1.31019C10.0725 3.00139 9.75073 5.18287 9.39579 8.13822L10.8452 8.11975C11.1768 5.40815 11.5318 3.2043 12.0462 1.51326Z" fill="#00CE90"/>
<path d="M18.1963 2.14906C19.7326 2.14906 20.9227 2.58182 21.7666 3.44734C22.5889 4.31287 23 5.51378 23 7.05008L23 12.8707L20.6955 12.8707L20.6955 7.24483C20.6955 6.22784 20.4575 5.44887 19.9815 4.90791C19.5054 4.3886 18.7914 4.12894 17.8393 4.12894C17.2335 4.12894 16.8606 4.27044 16.2426 4.45005L15.7322 3.42378L16.1686 2.39507C16.6705 2.22602 17.4823 2.14906 18.1963 2.14906Z" fill="#00CE90"/>
<path d="M7.71592 21.6743V19.5971C9.11647 19.2741 10.9889 18.325 12.4577 16.7094L14.3083 17.0031C13.3096 18.6482 9.12149 21.2864 7.71592 21.6743Z" fill="#00A5CE"/>
<path d="M7.71594 16.6556L7.91541 15.1752C9.69621 15.1808 11.9193 15.4529 14.9095 15.8983L14.5082 17.2655C11.763 16.8624 9.50924 16.6158 7.71594 16.6556Z" fill="#00A5CE"/>
<path d="M12.2664 22.5331L13.7735 22.7362C14.24 21.045 14.5618 18.8635 14.9167 15.9082L13.4674 15.9266C13.1358 18.6382 12.7808 20.8421 12.2664 22.5331Z" fill="#00A5CE"/>
<path d="M5.80366 21.8868C4.26735 21.8868 3.07726 21.454 2.23337 20.5885C1.41113 19.723 1 18.5221 1 16.9858V11.1651H3.30446V16.791C3.30446 17.808 3.54248 18.587 4.01851 19.1279C4.49455 19.6472 5.20861 19.9069 6.16068 19.9069C6.76655 19.9069 7.13936 19.7654 7.75744 19.5858L8.26785 20.6121L7.8314 21.6408C7.32954 21.8098 6.51771 21.8868 5.80366 21.8868Z" fill="#00A5CE"/>
</svg>
